# xmcd
#
# Track frame offsets: 
#        150
#        20640
#        41807
#        61017
#        75687
#        98777
#        126877
#        145287
#        162652
#        177220
#
# Disc length: 2667 seconds
#
# Revision: 5
# Processed by: cddbd v1.5.2PL0 Copyright (c) Steve Scherf et al.
# Submitted via: ExactAudioCopyFreeDBPlugin 1.0
#
DISCID=860a690a,870a6c0a
DTITLE=The Rolling Stones - Undercover
DYEAR=1983
DGENRE=Rock
TTITLE0=Undercover Of The Night
TTITLE1=She Was Hot
TTITLE2=Tie You Up (The Pain Of Love)
TTITLE3=Wanna Hold You
TTITLE4=Feel On Baby
TTITLE5=Too Much Blood
TTITLE6=Pretty Beat Up
TTITLE7=Too Tough
TTITLE8=All The Way Down
TTITLE9=It Must Be Hell
EXTD=
EXTT0=
EXTT1=
EXTT2=
EXTT3=
EXTT4=
EXTT5=
EXTT6=
EXTT7=
EXTT8=
EXTT9=
PLAYORDER=
